<svg xmlns="http://www.w3.org/2000/svg" xmlns:xlink="http://www.w3.org/1999/xlink" width="498" zoomAndPan="magnify" viewBox="0 0 373.5 73.499998" height="98" preserveAspectRatio="xMidYMid meet" version="1.0"><defs><g/><clipPath id="63a880f1b9"><path d="M 299 0 L 371.988281 0 L 371.988281 73 L 299 73 Z M 299 0 " clip-rule="nonzero"/></clipPath><clipPath id="88bd95e70e"><path d="M 299 1 L 371.988281 1 L 371.988281 73.003906 L 299 73.003906 Z M 299 1 " clip-rule="nonzero"/></clipPath><clipPath id="57801a83fc"><path d="M 1.011719 0 L 74 0 L 74 73.003906 L 1.011719 73.003906 Z M 1.011719 0 " clip-rule="nonzero"/></clipPath><clipPath id="bcd7ac14b1"><path d="M 1.011719 0 L 74 0 L 74 72 L 1.011719 72 Z M 1.011719 0 " clip-rule="nonzero"/></clipPath></defs><g fill="#404040" fill-opacity="1"><g transform="translate(42.672259, 47.24975)"><g><path d="M 23.355469 -23.179688 L 19.976562 -23.179688 C 18.816406 -23.179688 18.640625 -22.40625 18.394531 -21.984375 L 13.542969 -13.332031 L 8.722656 -21.984375 C 8.441406 -22.40625 8.300781 -23.179688 7.105469 -23.179688 L 3.621094 -23.179688 C 2.8125 -23.179688 2.601562 -22.792969 2.601562 -22.160156 L 2.601562 -1.019531 C 2.601562 -0.210938 2.988281 0 3.621094 0 L 7.105469 0 C 7.738281 0 8.125 -0.210938 8.125 -1.019531 L 8.125 -12.945312 L 11.675781 -6.789062 C 11.851562 -6.507812 12.132812 -6.050781 12.664062 -6.050781 L 14.421875 -6.050781 C 14.949219 -6.050781 15.265625 -6.507812 15.441406 -6.789062 L 18.957031 -12.945312 L 18.957031 -1.019531 C 18.957031 -0.210938 19.34375 0 19.976562 0 L 23.355469 0 C 23.988281 0 24.375 -0.210938 24.375 -1.019531 L 24.375 -22.160156 C 24.375 -22.792969 24.164062 -23.179688 23.355469 -23.179688 Z M 23.355469 -23.179688 "/></g></g></g><g fill="#404040" fill-opacity="1"><g transform="translate(73.519119, 47.24975)"><g><path d="M 11.5 -23.144531 L 3.621094 -23.144531 C 2.8125 -23.144531 2.601562 -22.757812 2.601562 -22.125 L 2.601562 -1.019531 C 2.601562 -0.386719 2.8125 0 3.621094 0 L 11.5 0 C 15.6875 0 20.964844 -2.390625 20.964844 -7.914062 L 20.964844 -15.230469 C 20.964844 -20.71875 15.6875 -23.144531 11.5 -23.144531 Z M 15.441406 -14.738281 L 15.441406 -8.40625 C 15.441406 -6.15625 13.824219 -4.890625 11.5 -4.890625 L 8.125 -4.890625 L 8.125 -18.253906 L 11.5 -18.253906 C 13.824219 -18.253906 15.441406 -16.953125 15.441406 -14.738281 Z M 15.441406 -14.738281 "/></g></g></g><g fill="#404040" fill-opacity="1"><g transform="translate(100.250779, 47.24975)"><g><path d="M 19.378906 -4.925781 L 8.160156 -4.925781 L 8.160156 -9.566406 L 17.585938 -9.566406 C 18.394531 -9.566406 18.605469 -9.953125 18.605469 -10.585938 L 18.605469 -13.332031 C 18.605469 -13.964844 18.394531 -14.351562 17.585938 -14.351562 L 8.160156 -14.351562 L 8.160156 -18.183594 L 18.78125 -18.183594 C 19.589844 -18.183594 19.800781 -18.570312 19.800781 -19.203125 L 19.800781 -22.125 C 19.800781 -22.757812 19.589844 -23.144531 18.78125 -23.144531 L 3.621094 -23.144531 C 2.8125 -23.144531 2.601562 -22.757812 2.601562 -22.125 L 2.601562 -1.019531 C 2.601562 -0.386719 2.8125 0 3.621094 0 L 19.378906 0 C 20.1875 0 20.398438 -0.386719 20.398438 -1.019531 L 20.398438 -3.902344 C 20.398438 -4.539062 20.1875 -4.925781 19.378906 -4.925781 Z M 19.378906 -4.925781 "/></g></g></g><g fill="#404040" fill-opacity="1"><g transform="translate(126.173473, 47.24975)"><g><path d="M 21.5625 -1.125 L 16.601562 -8.335938 C 18.78125 -9.074219 21.492188 -11.640625 21.492188 -15.335938 C 21.492188 -17.585938 20.753906 -19.589844 19.449219 -20.859375 C 17.972656 -22.335938 16.285156 -23.109375 12.453125 -23.109375 L 3.585938 -23.109375 C 2.777344 -23.109375 2.601562 -22.722656 2.601562 -22.089844 L 2.601562 -1.019531 C 2.601562 -0.210938 2.953125 0 3.585938 0 L 7.070312 0 C 7.703125 0 8.089844 -0.210938 8.089844 -1.019531 L 8.089844 -18.183594 L 12.769531 -18.183594 C 14.597656 -18.183594 16.003906 -17.023438 16.003906 -15.195312 C 16.003906 -13.542969 14.386719 -12.347656 12.664062 -12.347656 L 11.957031 -12.347656 C 11.148438 -12.347656 10.9375 -11.957031 10.9375 -11.324219 L 10.9375 -8.511719 C 10.9375 -7.527344 11.007812 -7.140625 11.324219 -6.71875 L 15.125 -1.054688 C 15.617188 -0.316406 16.039062 0 16.882812 0 L 21.035156 0 C 21.703125 0 21.878906 -0.632812 21.5625 -1.125 Z M 21.5625 -1.125 "/></g></g></g><g fill="#404040" fill-opacity="1"><g transform="translate(153.4679, 47.24975)"><g><path d="M 20.789062 -7.421875 L 20.789062 -15.722656 C 20.789062 -21.28125 15.511719 -23.671875 11.324219 -23.671875 C 7.140625 -23.671875 1.933594 -21.28125 1.933594 -15.722656 L 1.933594 -7.421875 C 1.933594 -1.863281 7.140625 0.527344 11.324219 0.527344 C 15.511719 0.527344 20.789062 -1.863281 20.789062 -7.421875 Z M 15.265625 -15.230469 L 15.265625 -7.914062 C 15.265625 -5.664062 13.648438 -4.363281 11.324219 -4.363281 C 9.039062 -4.363281 7.421875 -5.664062 7.421875 -7.914062 L 7.421875 -15.230469 C 7.421875 -17.480469 9.039062 -18.78125 11.324219 -18.78125 C 13.648438 -18.78125 15.265625 -17.480469 15.265625 -15.230469 Z M 15.265625 -15.230469 "/></g></g></g><g fill="#404040" fill-opacity="1"><g transform="translate(180.0237, 47.24975)"><g><path d="M 19.90625 -23.144531 L 16.425781 -23.144531 C 15.792969 -23.144531 15.40625 -22.933594 15.40625 -22.125 L 15.40625 -7.84375 C 15.40625 -5.628906 13.929688 -4.363281 11.605469 -4.363281 C 9.285156 -4.363281 7.84375 -5.628906 7.84375 -7.84375 L 7.84375 -22.125 C 7.84375 -22.933594 7.457031 -23.144531 6.824219 -23.144531 L 3.339844 -23.144531 C 2.707031 -23.144531 2.320312 -22.933594 2.320312 -22.125 L 2.320312 -7.070312 C 2.320312 -1.546875 7.421875 0.527344 11.605469 0.527344 C 15.792969 0.527344 20.929688 -1.546875 20.929688 -7.070312 L 20.929688 -22.125 C 20.929688 -22.933594 20.542969 -23.144531 19.90625 -23.144531 Z M 19.90625 -23.144531 "/></g></g></g><g fill="#404040" fill-opacity="1"><g transform="translate(207.142264, 47.24975)"><g><path d="M 18.253906 -4.925781 L 8.125 -4.925781 L 8.125 -22.125 C 8.125 -22.933594 7.738281 -23.144531 7.105469 -23.144531 L 3.621094 -23.144531 C 2.988281 -23.144531 2.601562 -22.933594 2.601562 -22.125 L 2.601562 -1.019531 C 2.601562 -0.386719 2.8125 0 3.621094 0 L 18.253906 0 C 19.0625 0 19.273438 -0.386719 19.273438 -1.019531 L 19.273438 -3.902344 C 19.273438 -4.539062 19.0625 -4.925781 18.253906 -4.925781 Z M 18.253906 -4.925781 "/></g></g></g><g fill="#404040" fill-opacity="1"><g transform="translate(231.482196, 47.24975)"><g><path d="M 18.253906 -4.925781 L 8.125 -4.925781 L 8.125 -22.125 C 8.125 -22.933594 7.738281 -23.144531 7.105469 -23.144531 L 3.621094 -23.144531 C 2.988281 -23.144531 2.601562 -22.933594 2.601562 -22.125 L 2.601562 -1.019531 C 2.601562 -0.386719 2.8125 0 3.621094 0 L 18.253906 0 C 19.0625 0 19.273438 -0.386719 19.273438 -1.019531 L 19.273438 -3.902344 C 19.273438 -4.539062 19.0625 -4.925781 18.253906 -4.925781 Z M 18.253906 -4.925781 "/></g></g></g><g fill="#404040" fill-opacity="1"><g transform="translate(255.822128, 47.24975)"><g><path d="M 19.378906 -4.925781 L 8.160156 -4.925781 L 8.160156 -9.566406 L 17.585938 -9.566406 C 18.394531 -9.566406 18.605469 -9.953125 18.605469 -10.585938 L 18.605469 -13.332031 C 18.605469 -13.964844 18.394531 -14.351562 17.585938 -14.351562 L 8.160156 -14.351562 L 8.160156 -18.183594 L 18.78125 -18.183594 C 19.589844 -18.183594 19.800781 -18.570312 19.800781 -19.203125 L 19.800781 -22.125 C 19.800781 -22.757812 19.589844 -23.144531 18.78125 -23.144531 L 3.621094 -23.144531 C 2.8125 -23.144531 2.601562 -22.757812 2.601562 -22.125 L 2.601562 -1.019531 C 2.601562 -0.386719 2.8125 0 3.621094 0 L 19.378906 0 C 20.1875 0 20.398438 -0.386719 20.398438 -1.019531 L 20.398438 -3.902344 C 20.398438 -4.539062 20.1875 -4.925781 19.378906 -4.925781 Z M 19.378906 -4.925781 "/></g></g></g><g fill="#404040" fill-opacity="1"><g transform="translate(281.744828, 47.24975)"><g><path d="M 21.5625 -1.125 L 16.601562 -8.335938 C 18.78125 -9.074219 21.492188 -11.640625 21.492188 -15.335938 C 21.492188 -17.585938 20.753906 -19.589844 19.449219 -20.859375 C 17.972656 -22.335938 16.285156 -23.109375 12.453125 -23.109375 L 3.585938 -23.109375 C 2.777344 -23.109375 2.601562 -22.722656 2.601562 -22.089844 L 2.601562 -1.019531 C 2.601562 -0.210938 2.953125 0 3.585938 0 L 7.070312 0 C 7.703125 0 8.089844 -0.210938 8.089844 -1.019531 L 8.089844 -18.183594 L 12.769531 -18.183594 C 14.597656 -18.183594 16.003906 -17.023438 16.003906 -15.195312 C 16.003906 -13.542969 14.386719 -12.347656 12.664062 -12.347656 L 11.957031 -12.347656 C 11.148438 -12.347656 10.9375 -11.957031 10.9375 -11.324219 L 10.9375 -8.511719 C 10.9375 -7.527344 11.007812 -7.140625 11.324219 -6.71875 L 15.125 -1.054688 C 15.617188 -0.316406 16.039062 0 16.882812 0 L 21.035156 0 C 21.703125 0 21.878906 -0.632812 21.5625 -1.125 Z M 21.5625 -1.125 "/></g></g></g><g fill="#404040" fill-opacity="1"><g transform="translate(309.039244, 47.24975)"><g><path d="M 13.507812 -13.4375 C 12.097656 -14 6.929688 -14.773438 6.929688 -16.917969 C 6.929688 -18.5 8.863281 -18.957031 10.023438 -18.957031 C 11.078125 -18.957031 12.347656 -18.640625 13.015625 -18.007812 C 13.4375 -17.585938 13.613281 -17.304688 13.753906 -16.953125 C 13.929688 -16.496094 14.035156 -16.003906 14.703125 -16.003906 L 18.148438 -16.003906 C 18.957031 -16.003906 19.167969 -16.144531 19.167969 -16.988281 C 19.167969 -21.632812 14.28125 -23.671875 9.8125 -23.671875 C 5.417969 -23.496094 1.265625 -21.246094 1.265625 -16.671875 C 1.265625 -12.203125 4.539062 -10.796875 8.089844 -9.671875 C 11.078125 -8.722656 14.210938 -8.6875 14.210938 -6.71875 C 14.210938 -4.75 12.664062 -4.328125 10.761719 -4.328125 C 9.460938 -4.328125 8.019531 -4.644531 7.316406 -5.488281 C 6.859375 -6.015625 6.683594 -6.472656 6.648438 -6.929688 C 6.578125 -7.808594 6.191406 -7.914062 5.382812 -7.914062 L 1.96875 -7.914062 C 1.160156 -7.914062 0.949219 -7.738281 0.949219 -6.929688 C 0.949219 -2.003906 6.015625 0.527344 10.410156 0.527344 C 15.828125 0.527344 19.765625 -1.863281 19.765625 -6.859375 C 19.765625 -11.640625 16.039062 -12.664062 13.507812 -13.4375 Z M 13.507812 -13.4375 "/></g></g></g><g clip-path="url(#63a880f1b9)"><path stroke-linecap="butt" transform="matrix(-0.421553, -0.421553, 0.421553, -0.421553, 367.078527, 40.494364)" fill="none" stroke-linejoin="miter" d="M -0.00157501 5.001295 L 84.433296 5.001295 " stroke="#404040" stroke-width="10" stroke-opacity="1" stroke-miterlimit="4"/></g><g clip-path="url(#88bd95e70e)"><path stroke-linecap="butt" transform="matrix(0.421553, -0.421553, 0.421553, 0.421553, 331.055518, 68.090631)" fill="none" stroke-linejoin="miter" d="M -0.0000517486 5.001904 L 82.461089 5.001904 " stroke="#404040" stroke-width="10" stroke-opacity="1" stroke-miterlimit="4"/></g><g clip-path="url(#57801a83fc)"><path stroke-linecap="butt" transform="matrix(0.421553, 0.421553, -0.421553, 0.421553, 5.918212, 32.505084)" fill="none" stroke-linejoin="miter" d="M -0.0016857 5.002714 L 84.433185 5.002714 " stroke="#404040" stroke-width="10" stroke-opacity="1" stroke-miterlimit="4"/></g><g clip-path="url(#bcd7ac14b1)"><path stroke-linecap="butt" transform="matrix(-0.421553, 0.421553, -0.421553, -0.421553, 41.941211, 4.908817)" fill="none" stroke-linejoin="miter" d="M 0.0013569 5.002002 L 82.462498 5.002002 " stroke="#404040" stroke-width="10" stroke-opacity="1" stroke-miterlimit="4"/></g></svg>